{"title":"Sonu Ke Titu Ki Sweety 2018 Hindi 1080p BluRay x264 DTS [MW]","magnet":"magnet:?xt=urn:btih:b3d6d6a1a46e2243fcd4e22371e22d00835c4a5d&dn=Sonu+Ke+Titu+Ki+Sweety+2018+Hindi+1080p+BluRay+x264+DTS+%5BMW%5D&tr=udp%3A%2F%2Ftracker.leechers-paradise.org%3A6969&tr=udp%3A%2F%2Fzer0day.ch%3A1337&tr=udp%3A%2F%2Fopen.demonii.com%3A1337&tr=udp%3A%2F%2Ftracker.coppersurfer.tk%3A6969&tr=udp%3A%2F%2Fexodus.desync.com%3A6969","uploader":"MFreaky","categoryP":"video","categoryS":"hd___movies","size":"3912676065","seeders":"0","leechers":"0","description":" <a href=\"https://pichub.site/image/EWZTj\" rel=\"nofollow\" target=\"_NEW\">https://pichub.site/image/EWZTj</a> <a href=\"\nhttps://pichub.site/image/EWTsQ\" rel=\"nofollow\" target=\"_NEW\">\nhttps://pichub.site/image/EWTsQ</a> <a href=\"\nhttps://pichub.site/image/EWHuk\" rel=\"nofollow\" target=\"_NEW\">\nhttps://pichub.site/image/EWHuk</a> <a href=\"\nhttps://pichub.site/image/EWQav\" rel=\"nofollow\" target=\"_NEW\">\nhttps://pichub.site/image/EWQav</a> <a href=\"\nhttps://pichub.site/image/EWW8d\" rel=\"nofollow\" target=\"_NEW\">\nhttps://pichub.site/image/EWW8d</a>\r\n\r\nIMDB <a href=\"\nhttps://www.imdb.com/title/tt7581902/\" rel=\"nofollow\" target=\"_NEW\">\nhttps://www.imdb.com/title/tt7581902/</a>\r\n\r\nVideo\r\nFormat                                   : AVC\r\nFormat/Info                              : Advanced Video Codec\r\nFormat profile                           : High@L4.1\r\nFormat settings                          : CABAC / 5 Ref Frames\r\nFormat settings, CABAC                   : Yes\r\nFormat settings, RefFrames               : 5 frames\r\nCodec ID                                 : V_MPEG4/ISO/AVC\r\nDuration                                 : 2 h 18 min\r\nBit rate                                 : 3 000 kb/s\r\nWidth                                    : 1 920 pixels\r\nHeight                                   : 800 pixels\r\nDisplay aspect ratio                     : 2.40:1\r\nFrame rate mode                          : Constant\r\nFrame rate                               : 24.000 FPS\r\nColor space                              : YUV\r\nChroma subsampling                       : 4:2:0\r\nBit depth                                : 8 bits\r\nBits/(Pixel*Frame)                       : 0.081\r\nStream size                              : 2.89 GiB (79%)\r\nWriting library                          : x264 core 155 r2901 7d0ff22\r\n\r\nAudio\r\nFormat                                   : DTS\r\nFormat/Info                              : Digital Theater Systems\r\nCodec ID                                 : A_DTS\r\nDuration                                 : 2 h 18 min\r\nBit rate mode                            : Constant\r\nBit rate                                 : 756 kb/s\r\nChannel(s)                               : 6 channels\r\nChannel positions                        : Front: L C R, Side: L R, LFE\r\nSampling rate                            : 48.0 kHz\r\nFrame rate                               : 93.750 FPS (512 SPF)\r\nBit depth                                : 16 bits\r\nStream size                              : 750 MiB (20%)\r\nLanguage                                 : Hindi","last_updated":"2018-10-05T12:32:03.747Z","parsed":{"xt":"urn:btih:b3d6d6a1a46e2243fcd4e22371e22d00835c4a5d","dn":"Sonu Ke Titu Ki Sweety 2018 Hindi 1080p BluRay x264 DTS [MW]","tr":["udp://exodus.desync.com:6969","udp://open.demonii.com:1337","udp://tracker.coppersurfer.tk:6969","udp://tracker.leechers-paradise.org:6969","udp://zer0day.ch:1337"],"infoHash":"b3d6d6a1a46e2243fcd4e22371e22d00835c4a5d","infoHashBuffer":{"type":"Buffer","data":[179,214,214,161,164,110,34,67,252,212,226,35,113,226,45,0,131,92,74,93]},"name":"Sonu Ke Titu Ki Sweety 2018 Hindi 1080p BluRay x264 DTS [MW]","announce":["udp://exodus.desync.com:6969","udp://open.demonii.com:1337","udp://tracker.coppersurfer.tk:6969","udp://tracker.leechers-paradise.org:6969","udp://zer0day.ch:1337"],"urlList":[]}}